<?xml version="1.0" encoding="utf-8"?>
<!-- Generator: Adobe Illustrator 29.5.1, SVG Export Plug-In . SVG Version: 9.03 Build 0)  -->
<svg version="1.1" baseProfile="basic" id="Capa_1" xmlns="http://www.w3.org/2000/svg" xmlns:xlink="http://www.w3.org/1999/xlink"
	 x="0px" y="0px" viewBox="0 0 82.1 22.4" xml:space="preserve">
<g>
	<path d="M5.2,5.3c0-1.2-1.5-3-2.5-3.7C2.7,1.6,2.1,1.3,2,1.4c0.1,0.7-0.3,1.3-0.2,2c0,0.4,0.2,0.9,0.2,1.3c0.2,0.9,0.5,1.7,0.7,2.6
		C3.7,6.7,4.2,5.5,5.2,5.3z"/>
	<path d="M21,7.2l0.9-2.5c0.2-1.1,0.2-0.7,0.2-2.1c0-0.4,0-0.6-0.2-1.2C21.6,1.1,20,2.7,19.8,3c-0.3,0.3-1.4,2.1-1.1,2.4
		C19.7,5.5,20.2,6.6,21,7.2z"/>
	<path d="M22.4,8.1c0.5-2.4,1.3-5.3,0.7-7c-0.4-1.1-0.9-1.4-1.9-0.9C19.5,1.1,18,3,16.3,4L7.8,4C7.1,3.9,4.1,1.1,3.2,0.5
		C2.6,0.2,2.1-0.1,1.4,0.1C1.2,0.1,0.3,1.7,0.5,3c0.3,1.7,0.7,3.4,1,5.1C1,8.2,0.5,8.3,0.1,8.3L0,10.2c0.3,0.2,0.7,0.6,0.9,1.5h0
		c0,0.1,0,0.2,0.1,0.3c0.1,0.4,0.2,0.8,0.3,1.2c-0.1,2.3,1.3,4.8,3.2,5.9c0.8,0.5,1.8,0.7,2.6,1.2c2.2,1.2,3,2.4,5.9,2.1
		c1.6-0.2,2.7-1.4,4-2.1c1.9-1.1,3.4-1.2,4.7-3.2c0.8-1.3,1.1-2.5,1-3.8c0.1-0.4,0.2-0.8,0.3-1.3c0-0.1,0-0.2,0.1-0.3
		c0.2-0.8,0.6-1.3,0.9-1.5l-0.1-1.9C23.4,8.3,22.9,8.2,22.4,8.1z M2.4,9C2.4,8.9,2.4,8.9,2.4,9c0.1-0.1,0.2-0.1,0.2-0.1
		C2.5,8.9,2.4,8.9,2.4,9C2.4,9,2.4,9,2.4,9z M1.9,9.4c0,0,0.1-0.1,0.1-0.1c0,0,0,0,0.1,0C2,9.3,2,9.3,1.9,9.4
		C1.9,9.4,1.9,9.4,1.9,9.4z M1.7,9.9c0,0.1,0,0.1-0.1,0.2C1.6,10,1.7,9.9,1.7,9.9C1.7,9.9,1.7,9.9,1.7,9.9C1.7,9.9,1.7,9.9,1.7,9.9z
		 M1.8,12c-0.2-0.7-0.2-1.3-0.1-1.8C1.9,9,2.9,8.5,4.2,8.4c0,0,0.1,0,0.1,0c0.2,0,0.4,0,0.7,0c0.2,0,0.3,0,0.5,0c0.1,0,0.1,0,0.2,0
		C9.1,8.5,11.3,9,10,11.8c-0.1,0.3-0.3,0.6-0.4,0.9c-0.7,1.8-1.2,2.8-4.1,2.9c-0.1,0-0.3,0-0.4,0C2.9,15.5,2.3,14.1,1.8,12z M3,8.6
		C3,8.6,3,8.6,3,8.6c0.1-0.1,0.2-0.1,0.3-0.1c0,0,0,0,0,0C3.2,8.6,3.1,8.6,3,8.6z M3.7,8.5C3.7,8.5,3.8,8.5,3.7,8.5
		c0.1,0,0.2,0,0.3,0c0,0,0,0,0,0C3.9,8.4,3.8,8.5,3.7,8.5z M4.6,8.4C4.6,8.4,4.6,8.4,4.6,8.4c0.1,0,0.2,0,0.3,0c0,0,0,0,0.1,0
		C4.9,8.4,4.7,8.4,4.6,8.4z M14.2,12.7c-0.1-0.3-0.2-0.6-0.4-0.9c-1.2-2.8,0.9-3.3,4.3-3.4c0.1,0,0.1,0,0.2,0c0.2,0,0.3,0,0.5,0
		c0.2,0,0.4,0,0.7,0c0,0,0.1,0,0.1,0C21,8.5,22,9,22.1,10.2c0.1,0.5,0.1,1-0.1,1.8c-0.4,2-1,3.5-3.4,3.6c-0.1,0-0.2,0-0.4,0
		C15.4,15.5,14.9,14.5,14.2,12.7z M18.9,8.4C18.9,8.4,18.9,8.4,18.9,8.4c0.2,0,0.2,0,0.3,0c0,0,0,0,0.1,0C19.1,8.4,19,8.4,18.9,8.4z
		 M22.2,9.9C22.2,9.9,22.2,9.9,22.2,9.9C22.2,9.9,22.2,9.9,22.2,9.9c0,0,0,0.1,0.1,0.2C22.2,10,22.2,9.9,22.2,9.9z M21.9,9.4
		c0,0-0.1-0.1-0.1-0.1C21.8,9.3,21.9,9.3,21.9,9.4C21.9,9.3,21.9,9.4,21.9,9.4C22,9.4,21.9,9.4,21.9,9.4z M21.5,9
		c-0.1,0-0.1-0.1-0.2-0.1C21.3,8.9,21.4,8.9,21.5,9C21.5,8.9,21.5,8.9,21.5,9C21.5,9,21.5,9,21.5,9z M19.8,8.4
		C19.8,8.4,19.8,8.4,19.8,8.4c0.1,0,0.2,0,0.3,0c0,0,0,0,0.1,0C20,8.5,19.9,8.4,19.8,8.4z M20.6,8.6C20.6,8.6,20.6,8.6,20.6,8.6
		c0.1,0,0.1,0,0.2,0.1c0,0,0,0,0.1,0C20.8,8.6,20.7,8.6,20.6,8.6z M1.5,4.1C1.4,3.7,1.3,3,1.3,2.6c0-0.5,0.2-1.2,0.2-1.3
		c0.3-0.9,1.2-0.2,1.7,0.2c1.1,0.8,3.5,3.2,4.7,3.5C8.1,5,8.3,4.8,8.5,4.8c1.9-0.1,4.7-0.1,6.6,0c0.3,0,0.6,0.2,0.7,0.2
		c0.9,0,4.4-3.2,5.4-3.9c0.3-0.2,0.6-0.3,0.9-0.3c0.2,0.7,0.5,1.3,0.4,2c-0.2,1.6-0.7,3.4-1,5.2c-0.5-0.1-1.1-0.2-1.5-0.2
		c-0.4,0-0.7,0-1.1,0h0c-0.3,0-0.6,0-0.9,0c-2,0.1-3.6,0.3-4.5,0.9l0,0c-1.2,0.4-3.2,0-3.2,0l0,0C9.4,8.1,7.8,7.9,5.9,7.8
		c-0.3,0-0.6,0-0.9,0c0,0,0,0,0,0c-0.4,0-0.8,0-1.1,0C3.3,7.8,2.8,7.9,2.3,8C2,6.6,1.6,5.3,1.5,4.1z M18.5,18.7
		c-1,0.5-1.5,0.6-2.5,1.3c-1.9,1.2-3.2,2-5.5,1.4c-1.3-0.4-2-1.2-3.1-1.8c-1.2-0.7-2.6-0.8-3.7-2c-0.5-0.5-1-1.3-1.3-2.2
		c0.7,0.6,1.6,1,3.2,0.9c3.9-0.2,4.1-1.7,5.3-4.4c0.1-0.3,0.2-0.6,0.3-0.9c0-0.1,0-0.1,0-0.2c0.6-0.3,1.2-0.1,1.4,0
		c0,0.1,0,0.1,0,0.2c0.1,0.3,0.2,0.6,0.3,0.9c1.2,2.8,1.3,4.3,5.3,4.4c1.6,0.1,2.6-0.3,3.3-1C21,16.7,19.8,18,18.5,18.7z"/>
	<path d="M12,14.4C12,14.4,12,14.4,12,14.4c0,0-0.1,0-0.1,0c-0.1,0-0.1,0-0.1,0s0,0,0,0c-0.5,0-1.4,0.1-1.5,0.3
		c-0.2,0.2-0.3,0.7-0.2,0.8c0.1,0.1,0.7,0,1,0.4c0.2,0.4,0.4,0.6,0.8,0.7c0,0.3,0,0.6-0.1,0.9c-0.1,0.5-1,0.9-1,0.9s0.7-0.1,1.1-0.2
		c0,0,0.1,0,0.2,0c0.5,0,1.3,0.2,1.3,0.2s-0.9-0.5-1.1-0.9c-0.1-0.3-0.1-0.7-0.1-1c0.4-0.1,0.5-0.3,0.8-0.7c0.3-0.4,0.9-0.3,1-0.4
		c0.1-0.1,0-0.6-0.2-0.8C13.4,14.5,12.5,14.4,12,14.4z"/>
	<path d="M30.1,12.8h1.9v-1.6h1.1V9.3h-1.1V1.9h-0.9h-0.8l-4.9,7.7v0.8v0.8h4.7V12.8z M27.5,9.3l2.6-4.2v4.2H27.5z"/>
	<polygon points="40.4,12.8 40.4,4.6 43.3,12.8 44.1,12.8 44.9,12.8 47.8,4.5 47.8,12.8 48.8,12.8 49.8,12.8 49.8,1.9 48.4,1.9 
		47,1.9 44.1,10.2 41.2,1.9 39.8,1.9 38.4,1.9 38.4,12.8 39.4,12.8 	"/>
	<polygon points="53.4,12.8 53.4,4.6 52.5,4.6 51.5,4.6 51.5,12.8 52.5,12.8 	"/>
	<rect x="51.5" y="1.9" width="2" height="1.8"/>
	<path d="M59.1,13c1,0,1.8-0.3,2.5-0.8c0.7-0.5,1.2-1.2,1.5-2.1H61c-0.2,0.3-0.4,0.6-0.8,0.8s-0.7,0.3-1.1,0.3
		c-0.7,0-1.3-0.2-1.7-0.7C57,10,56.7,9.4,56.7,8.7c0-0.7,0.2-1.3,0.7-1.8c0.4-0.5,1-0.7,1.6-0.7c0.4,0,0.8,0.1,1.2,0.3
		c0.3,0.2,0.6,0.5,0.8,0.9h2.2c-0.3-0.9-0.8-1.6-1.5-2.2c-0.7-0.5-1.6-0.8-2.6-0.8c-1.2,0-2.2,0.4-3,1.3c-0.8,0.8-1.3,1.9-1.3,3.1
		c0,1.2,0.4,2.2,1.3,3.1C56.9,12.6,57.9,13,59.1,13z"/>
	<path d="M66.4,12.8V8.5c0-0.8,0.1-1.4,0.4-1.8c0.3-0.4,0.7-0.6,1.3-0.6c0.5,0,0.9,0.2,1.2,0.6c0.3,0.4,0.4,0.9,0.4,1.7v4.4h1h1V8
		c0-1.1-0.3-2-0.8-2.6c-0.6-0.6-1.3-1-2.3-1c-0.8,0-1.5,0.3-2.1,0.8V1.9h-1h-1v10.8h1H66.4z"/>
	<polygon points="75.2,12.8 75.2,4.6 74.2,4.6 73.2,4.6 73.2,12.8 74.2,12.8 	"/>
	<rect x="73.2" y="1.9" width="2" height="1.8"/>
	<path d="M79.3,11.3c-0.3,0-0.5-0.1-0.7-0.3c-0.2-0.2-0.3-0.4-0.4-0.8h-2c0,0.8,0.3,1.5,0.9,2.1c0.6,0.5,1.3,0.8,2.1,0.8
		c0.8,0,1.5-0.3,2.1-0.8c0.5-0.5,0.8-1.2,0.8-2c0-0.6-0.2-1.2-0.5-1.6c-0.4-0.4-1-0.7-1.8-1c-0.5-0.2-0.8-0.3-1-0.4
		c-0.2-0.1-0.3-0.3-0.3-0.5c0-0.2,0.1-0.4,0.2-0.5c0.1-0.1,0.3-0.2,0.5-0.2c0.2,0,0.4,0.1,0.5,0.2C79.9,6.4,80,6.6,80,6.8h1.9
		c0-0.7-0.3-1.3-0.8-1.8c-0.5-0.5-1.1-0.7-1.8-0.7c-0.8,0-1.5,0.2-2,0.7c-0.5,0.5-0.8,1.1-0.8,1.8c0,0.6,0.2,1.1,0.6,1.5
		c0.4,0.4,1,0.7,1.9,1c0.4,0.1,0.8,0.3,0.9,0.4c0.2,0.1,0.2,0.3,0.2,0.6c0,0.2-0.1,0.4-0.3,0.6C79.7,11.2,79.5,11.3,79.3,11.3z"/>
	<path d="M27.5,15.4c0.2,0,0.4,0,0.6,0.1c0.2,0.1,0.4,0.2,0.5,0.4h0.9c-0.2-0.4-0.4-0.7-0.8-0.9c-0.4-0.2-0.7-0.3-1.2-0.3
		c-0.6,0-1.1,0.2-1.5,0.6c-0.4,0.4-0.6,0.9-0.6,1.5c0,0.6,0.2,1.1,0.6,1.5c0.4,0.4,0.9,0.6,1.5,0.6c0.4,0,0.8-0.1,1.2-0.3
		c0.4-0.2,0.6-0.5,0.8-0.9h-0.9c-0.1,0.2-0.3,0.3-0.5,0.4c-0.2,0.1-0.4,0.1-0.6,0.1c-0.4,0-0.7-0.1-1-0.4c-0.3-0.3-0.4-0.6-0.4-1
		c0-0.4,0.1-0.7,0.4-1C26.8,15.5,27.1,15.4,27.5,15.4z"/>
	<path d="M32.3,16.2c-0.3-0.3-0.6-0.4-1-0.4c-0.4,0-0.8,0.2-1.1,0.5c-0.3,0.3-0.4,0.7-0.4,1.2s0.2,0.8,0.4,1.2
		c0.3,0.3,0.7,0.5,1.1,0.5c0.4,0,0.8-0.1,1.1-0.4v0.3h0.3H33v-3.1h-0.7V16.2z M32,18.1c-0.2,0.2-0.4,0.3-0.7,0.3s-0.5-0.1-0.6-0.3
		c-0.2-0.2-0.3-0.4-0.3-0.7s0.1-0.5,0.3-0.7c0.2-0.2,0.4-0.3,0.7-0.3s0.5,0.1,0.7,0.3c0.2,0.2,0.3,0.4,0.3,0.7
		C32.3,17.6,32.2,17.9,32,18.1z"/>
	<polygon points="34.5,14.8 33.7,14.8 33.7,15.8 33.4,15.8 33.4,16.5 33.7,16.5 33.7,18.9 34.5,18.9 34.5,16.5 34.9,16.5 34.9,15.8 
		34.5,15.8 	"/>
	<path d="M38.5,14.8h-0.3l-1.7,4.1h0.4h0.4l0.4-1.1h1.6l0.4,1.1h0.4h0.4l-1.7-4.1H38.5z M38,17.1l0.5-1.3h0l0.5,1.3H38z"/>
	<path d="M43.3,14.8v1.3c-0.3-0.2-0.6-0.3-0.9-0.4c-0.4,0-0.8,0.2-1.1,0.5c-0.3,0.3-0.5,0.7-0.5,1.2s0.1,0.8,0.4,1.2
		c0.3,0.3,0.7,0.5,1.1,0.5c0.4,0,0.8-0.1,1-0.4v0.3h0.3H44v-4.1h-0.4H43.3z M43.1,18.1c-0.2,0.2-0.4,0.3-0.6,0.3
		c-0.3,0-0.5-0.1-0.6-0.3c-0.2-0.2-0.3-0.4-0.3-0.7s0.1-0.5,0.3-0.7s0.4-0.3,0.6-0.3c0.3,0,0.5,0.1,0.6,0.3c0.2,0.2,0.3,0.4,0.3,0.7
		C43.3,17.6,43.3,17.9,43.1,18.1z"/>
	<path d="M46.1,15.7c-0.5,0-0.8,0.2-1.2,0.5c-0.3,0.3-0.5,0.7-0.5,1.2s0.2,0.8,0.5,1.2c0.3,0.3,0.7,0.5,1.2,0.5s0.8-0.2,1.2-0.5
		c0.3-0.3,0.5-0.7,0.5-1.2s-0.2-0.8-0.5-1.2C46.9,15.9,46.5,15.7,46.1,15.7z M46.7,18.1c-0.2,0.2-0.4,0.3-0.6,0.3
		c-0.3,0-0.5-0.1-0.6-0.3c-0.2-0.2-0.3-0.4-0.3-0.7c0-0.3,0.1-0.5,0.3-0.7c0.2-0.2,0.4-0.3,0.6-0.3c0.3,0,0.5,0.1,0.6,0.3
		c0.2,0.2,0.3,0.4,0.3,0.7C47,17.6,46.9,17.9,46.7,18.1z"/>
	<path d="M49.8,15.7c-0.4,0-0.7,0.1-1,0.4v-0.3h-0.3h-0.3v4.1h0.4h0.4v-1.3c0.3,0.2,0.6,0.4,1,0.4c0.4,0,0.8-0.2,1.1-0.5
		c0.3-0.3,0.4-0.7,0.4-1.2s-0.1-0.8-0.4-1.2C50.6,15.9,50.3,15.7,49.8,15.7z M50.4,18.1c-0.2,0.2-0.4,0.3-0.6,0.3
		c-0.3,0-0.5-0.1-0.6-0.3c-0.2-0.2-0.3-0.4-0.3-0.7c0-0.3,0.1-0.5,0.3-0.7c0.2-0.2,0.4-0.3,0.6-0.3c0.3,0,0.5,0.1,0.6,0.3
		c0.2,0.2,0.3,0.4,0.3,0.7S50.5,17.9,50.4,18.1z"/>
	<polygon points="52.8,14.8 52,14.8 52,15.8 51.7,15.8 51.7,16.5 52,16.5 52,18.9 52.8,18.9 52.8,16.5 53.2,16.5 53.2,15.8 
		52.8,15.8 	"/>
	<polygon points="53.5,15.8 53.5,18.9 53.9,18.9 54.3,18.9 54.3,15.8 53.9,15.8 	"/>
	<rect x="53.5" y="14.8" width="0.7" height="0.7"/>
	<path d="M56.3,15.7c-0.5,0-0.8,0.2-1.2,0.5c-0.3,0.3-0.5,0.7-0.5,1.2s0.2,0.8,0.5,1.2c0.3,0.3,0.7,0.5,1.2,0.5s0.8-0.2,1.2-0.5
		c0.3-0.3,0.5-0.7,0.5-1.2s-0.2-0.8-0.5-1.2C57.2,15.9,56.8,15.7,56.3,15.7z M57,18.1c-0.2,0.2-0.4,0.3-0.6,0.3
		c-0.3,0-0.5-0.1-0.6-0.3c-0.2-0.2-0.3-0.4-0.3-0.7c0-0.3,0.1-0.5,0.3-0.7c0.2-0.2,0.4-0.3,0.6-0.3c0.3,0,0.5,0.1,0.6,0.3
		c0.2,0.2,0.3,0.4,0.3,0.7C57.2,17.6,57.2,17.9,57,18.1z"/>
	<path d="M60,15.7c-0.3,0-0.6,0.1-0.9,0.4v-0.3h-0.3h-0.3v3.1h0.4h0.4v-1.6c0-0.3,0.1-0.5,0.2-0.7c0.1-0.1,0.3-0.2,0.5-0.2
		c0.2,0,0.4,0.1,0.5,0.2c0.1,0.1,0.2,0.4,0.2,0.6v1.7h0.4h0.4v-1.8c0-0.4-0.1-0.8-0.3-1C60.6,15.8,60.3,15.7,60,15.7z"/>
	<path d="M64.6,16.4c-0.2-0.1-0.4-0.2-0.5-0.2C64.1,16.1,64,16,64,15.8c0-0.1,0-0.2,0.1-0.3c0.1-0.1,0.2-0.1,0.3-0.1
		c0.1,0,0.2,0,0.3,0.1c0.1,0.1,0.1,0.2,0.1,0.3h0.8c0-0.3-0.1-0.6-0.4-0.8c-0.2-0.2-0.5-0.3-0.8-0.3c-0.4,0-0.6,0.1-0.9,0.3
		c-0.2,0.2-0.3,0.5-0.3,0.9c0,0.3,0.1,0.5,0.2,0.7c0.2,0.2,0.4,0.3,0.8,0.5c0.3,0.1,0.5,0.2,0.6,0.3c0.1,0.1,0.2,0.2,0.2,0.4
		c0,0.2-0.1,0.3-0.2,0.4c-0.1,0.1-0.2,0.1-0.4,0.1c-0.2,0-0.3,0-0.4-0.1c-0.1-0.1-0.2-0.2-0.2-0.4h-0.8c0,0.4,0.2,0.7,0.4,0.9
		c0.2,0.2,0.6,0.3,0.9,0.3c0.4,0,0.7-0.1,1-0.4c0.3-0.2,0.4-0.6,0.4-0.9c0-0.3-0.1-0.6-0.3-0.8C65.3,16.7,65,16.5,64.6,16.4z"/>
	<polygon points="68.3,15.8 67.5,17.8 67.5,17.8 66.8,15.8 66.4,15.8 66,15.8 67.1,18.6 66.5,19.9 66.9,19.9 67.3,19.9 69.1,15.8 
		68.7,15.8 	"/>
	<path d="M70.6,17c-0.2-0.1-0.3-0.1-0.4-0.2c-0.1,0-0.1-0.1-0.1-0.2c0-0.1,0-0.1,0.1-0.2c0.1,0,0.1-0.1,0.2-0.1c0.1,0,0.1,0,0.2,0.1
		c0.1,0,0.1,0.1,0.1,0.2h0.7c0-0.3-0.1-0.5-0.3-0.7c-0.2-0.2-0.4-0.3-0.7-0.3c-0.3,0-0.6,0.1-0.8,0.3c-0.2,0.2-0.3,0.4-0.3,0.7
		c0,0.2,0.1,0.4,0.2,0.6c0.1,0.1,0.4,0.3,0.7,0.4c0.2,0.1,0.3,0.1,0.3,0.2c0.1,0.1,0.1,0.1,0.1,0.2c0,0.1,0,0.2-0.1,0.2
		c-0.1,0.1-0.1,0.1-0.3,0.1c-0.1,0-0.2,0-0.3-0.1c-0.1-0.1-0.1-0.2-0.1-0.3h-0.8c0,0.3,0.1,0.6,0.3,0.8c0.2,0.2,0.5,0.3,0.8,0.3
		c0.3,0,0.6-0.1,0.8-0.3c0.2-0.2,0.3-0.5,0.3-0.8c0-0.2-0.1-0.4-0.2-0.6C71.2,17.2,70.9,17.1,70.6,17z"/>
	<polygon points="72.8,14.8 72.1,14.8 72.1,15.8 71.7,15.8 71.7,16.5 72.1,16.5 72.1,18.9 72.8,18.9 72.8,16.5 73.3,16.5 73.3,15.8 
		72.8,15.8 	"/>
	<path d="M75.1,15.7c-0.4,0-0.8,0.2-1.1,0.5c-0.3,0.3-0.5,0.7-0.5,1.2s0.2,0.8,0.5,1.2c0.3,0.3,0.7,0.5,1.1,0.5c0.4,0,0.7-0.1,1-0.3
		c0.3-0.2,0.5-0.5,0.6-0.8h-0.8c-0.1,0.1-0.2,0.2-0.3,0.3c-0.1,0.1-0.3,0.1-0.4,0.1c-0.3,0-0.5-0.1-0.6-0.3
		c-0.1-0.1-0.2-0.2-0.2-0.4h2.4c0-0.1,0-0.2,0-0.3c0-0.5-0.2-0.8-0.5-1.2C75.9,15.9,75.5,15.7,75.1,15.7z M74.2,17.1
		c0-0.2,0.1-0.3,0.2-0.4c0.2-0.2,0.4-0.3,0.6-0.3s0.5,0.1,0.6,0.3c0.1,0.1,0.2,0.3,0.2,0.4H74.2z"/>
	<path d="M80.6,15.7c-0.4,0-0.7,0.1-0.9,0.4l-0.1,0.1l-0.1-0.1c-0.2-0.3-0.5-0.4-0.9-0.4c-0.3,0-0.6,0.1-0.8,0.4v-0.3h-0.3h-0.3v3.1
		h0.4h0.4v-1.6c0-0.3,0-0.5,0.1-0.7s0.3-0.2,0.4-0.2s0.4,0.1,0.5,0.2c0.1,0.1,0.2,0.4,0.2,0.6v1.7h0.4h0.4v-1.6
		c0-0.3,0.1-0.5,0.2-0.7c0.1-0.1,0.3-0.2,0.5-0.2c0.2,0,0.3,0.1,0.4,0.2c0.1,0.1,0.2,0.3,0.2,0.6v1.8h0.4h0.4V17
		c0-0.4-0.1-0.7-0.3-1C81.3,15.8,81,15.7,80.6,15.7z"/>
	<rect x="25.4" y="13.6" fill="#009EE2" width="56.4" height="0.4"/>
</g>
</svg>
